<svg xmlns="http://www.w3.org/2000/svg" viewBox="0 0 1600 700" width="1600" height="700">
  <rect width="1600" height="700" fill="#c8d8ff"/>

  <g stroke="#4477ff" stroke-width="1" fill="none">
    <!-- Row 1 nodes connections -->
    <line x1="80"  y1="90"  x2="260" y2="170" opacity="0.28"/>
    <line x1="80"  y1="90"  x2="180" y2="320" opacity="0.22"/>
    <line x1="80"  y1="90"  x2="50"  y2="310" opacity="0.2"/>
    <line x1="260" y1="170" x2="420" y2="100" opacity="0.3"/>
    <line x1="260" y1="170" x2="380" y2="340" opacity="0.25"/>
    <line x1="260" y1="170" x2="180" y2="320" opacity="0.2"/>
    <line x1="420" y1="100" x2="620" y2="60"  opacity="0.32"/>
    <line x1="420" y1="100" x2="560" y2="240" opacity="0.28"/>
    <line x1="420" y1="100" x2="380" y2="340" opacity="0.22"/>
    <line x1="620" y1="60"  x2="800" y2="110" opacity="0.3"/>
    <line x1="620" y1="60"  x2="700" y2="250" opacity="0.25"/>
    <line x1="800" y1="110" x2="980" y2="70"  opacity="0.3"/>
    <line x1="800" y1="110" x2="860" y2="290" opacity="0.28"/>
    <line x1="800" y1="110" x2="700" y2="250" opacity="0.2"/>
    <line x1="980" y1="70"  x2="1140" y2="120" opacity="0.3"/>
    <line x1="980" y1="70"  x2="1060" y2="270" opacity="0.25"/>
    <line x1="1140" y1="120" x2="1320" y2="80"  opacity="0.32"/>
    <line x1="1140" y1="120" x2="1220" y2="310" opacity="0.28"/>
    <line x1="1140" y1="120" x2="1060" y2="270" opacity="0.2"/>
    <line x1="1320" y1="80"  x2="1520" y2="140" opacity="0.3"/>
    <line x1="1320" y1="80"  x2="1400" y2="260" opacity="0.25"/>
    <line x1="1520" y1="140" x2="1580" y2="320" opacity="0.28"/>
    <line x1="1520" y1="140" x2="1400" y2="260" opacity="0.22"/>

    <!-- Row 2 nodes connections -->
    <line x1="50"  y1="310" x2="180" y2="320" opacity="0.2"/>
    <line x1="50"  y1="310" x2="120" y2="500" opacity="0.25"/>
    <line x1="180" y1="320" x2="380" y2="340" opacity="0.28"/>
    <line x1="180" y1="320" x2="280" y2="500" opacity="0.22"/>
    <line x1="380" y1="340" x2="560" y2="240" opacity="0.25"/>
    <line x1="380" y1="340" x2="460" y2="500" opacity="0.28"/>
    <line x1="560" y1="240" x2="700" y2="250" opacity="0.3"/>
    <line x1="560" y1="240" x2="620" y2="430" opacity="0.25"/>
    <line x1="700" y1="250" x2="860" y2="290" opacity="0.28"/>
    <line x1="700" y1="250" x2="740" y2="450" opacity="0.22"/>
    <line x1="860" y1="290" x2="1060" y2="270" opacity="0.3"/>
    <line x1="860" y1="290" x2="920" y2="460" opacity="0.25"/>
    <line x1="1060" y1="270" x2="1220" y2="310" opacity="0.28"/>
    <line x1="1060" y1="270" x2="1080" y2="460" opacity="0.22"/>
    <line x1="1220" y1="310" x2="1400" y2="260" opacity="0.3"/>
    <line x1="1220" y1="310" x2="1260" y2="490" opacity="0.25"/>
    <line x1="1400" y1="260" x2="1580" y2="320" opacity="0.28"/>
    <line x1="1400" y1="260" x2="1440" y2="470" opacity="0.22"/>
    <line x1="1580" y1="320" x2="1560" y2="500" opacity="0.25"/>

    <!-- Row 3 connections -->
    <line x1="120" y1="500" x2="280" y2="500" opacity="0.25"/>
    <line x1="120" y1="500" x2="80"  y2="650" opacity="0.2"/>
    <line x1="280" y1="500" x2="460" y2="500" opacity="0.28"/>
    <line x1="280" y1="500" x2="240" y2="650" opacity="0.22"/>
    <line x1="460" y1="500" x2="620" y2="430" opacity="0.25"/>
    <line x1="460" y1="500" x2="440" y2="650" opacity="0.2"/>
    <line x1="620" y1="430" x2="740" y2="450" opacity="0.28"/>
    <line x1="620" y1="430" x2="620" y2="640" opacity="0.22"/>
    <line x1="740" y1="450" x2="920" y2="460" opacity="0.3"/>
    <line x1="740" y1="450" x2="780" y2="640" opacity="0.25"/>
    <line x1="920" y1="460" x2="1080" y2="460" opacity="0.28"/>
    <line x1="920" y1="460" x2="940" y2="640" opacity="0.22"/>
    <line x1="1080" y1="460" x2="1260" y2="490" opacity="0.3"/>
    <line x1="1080" y1="460" x2="1100" y2="640" opacity="0.25"/>
    <line x1="1260" y1="490" x2="1440" y2="470" opacity="0.28"/>
    <line x1="1260" y1="490" x2="1280" y2="650" opacity="0.22"/>
    <line x1="1440" y1="470" x2="1560" y2="500" opacity="0.3"/>
    <line x1="1440" y1="470" x2="1460" y2="650" opacity="0.25"/>
    <line x1="1560" y1="500" x2="1580" y2="650" opacity="0.22"/>

    <!-- Bottom row -->
    <line x1="80"  y1="650" x2="240" y2="650" opacity="0.2"/>
    <line x1="240" y1="650" x2="440" y2="650" opacity="0.22"/>
    <line x1="440" y1="650" x2="620" y2="640" opacity="0.2"/>
    <line x1="620" y1="640" x2="780" y2="640" opacity="0.22"/>
    <line x1="780" y1="640" x2="940" y2="640" opacity="0.2"/>
    <line x1="940" y1="640" x2="1100" y2="640" opacity="0.22"/>
    <line x1="1100" y1="640" x2="1280" y2="650" opacity="0.2"/>
    <line x1="1280" y1="650" x2="1460" y2="650" opacity="0.22"/>
    <line x1="1460" y1="650" x2="1580" y2="650" opacity="0.2"/>

    <!-- Cross diagonals for depth -->
    <line x1="260" y1="170" x2="560" y2="240" opacity="0.15"/>
    <line x1="420" y1="100" x2="700" y2="250" opacity="0.12"/>
    <line x1="180" y1="320" x2="560" y2="240" opacity="0.14"/>
    <line x1="700" y1="250" x2="1060" y2="270" opacity="0.13"/>
    <line x1="860" y1="290" x2="1220" y2="310" opacity="0.15"/>
    <line x1="980" y1="70"  x2="1400" y2="260" opacity="0.12"/>
    <line x1="1140" y1="120" x2="1580" y2="320" opacity="0.13"/>
    <line x1="380" y1="340" x2="620" y2="430" opacity="0.15"/>
    <line x1="740" y1="450" x2="1080" y2="460" opacity="0.14"/>
    <line x1="920" y1="460" x2="1260" y2="490" opacity="0.13"/>
    <line x1="1260" y1="490" x2="1560" y2="500" opacity="0.12"/>
    <line x1="50"  y1="310" x2="380" y2="340" opacity="0.14"/>
    <line x1="120" y1="500" x2="460" y2="500" opacity="0.13"/>
  </g>
</svg>
